<svg xmlns="http://www.w3.org/2000/svg" fill="none" viewBox="0 0 622 53" height="53" width="622">
<path fill="black" d="M614.7 0H608.8C608.4 2.7 606.8 4 603.9 4C601 4 599.4 2.7 599 0H593.1C593.5 5.5 597.7 8.39999 603.9 8.39999C610.1 8.39999 614.3 5.5 614.7 0ZM487.1 37C486.2 40.5 483.7 45.7 476.1 45.7C468.9 45.7 464.3 39.5 464.3 30.9C464.3 22.2 468.9 16.1 476.1 16.1C483.7 16.1 486.2 21.3 487.1 24.9H496C494.2 15.3 487.6 9.10001 476.2 9.10001C464.7 9.10001 455.4 17.4 455.4 31C455.4 44.6 464.8 52.9 476.2 52.9C487.7 52.9 494 46.6 495.9 37.2H487.1V37ZM52.2 8.89999C39.7 8.89999 30.7 17.5 30.7 30.8C30.7 44.2 39.8 52.7 52.2 52.7C64.6 52.7 73.7 44.1 73.7 30.8C73.7 17.5 64.6 8.89999 52.2 8.89999ZM286.3 10.1H277.7L267.9 31.9L257.2 10.1H247.5L262.4 39.5C263 40.6 263.1 41 262.5 42.2C261.7 43.9 260.6 44.7 258.5 44.7H252.9V52H259.1C264 52 267.6 50 269.9 45.1L286.3 10.1ZM510.6 36.6L514.5 32.9L528.9 51.9H539.8L520.9 27.4L539.2 10.1H528.2L510.5 27.3V10.1H501.6V51.9H510.5V36.6H510.6ZM171.9 52H181L165.3 10.2H153.3L137.7 52H146.4L149.8 42.6H168.6L171.9 52ZM586.1 10.1V51.9H595.4L612.9 22.7V51.9H621.7V10.1H612.4L594.8 39.3V10.1H586.1ZM542.9 10.1V51.9H552.2L569.7 22.7V51.9H578.5V10.1H569.2L551.7 39.3V10.1H542.9ZM371.3 10.1V51.9H380.6L398.1 22.7V51.9H406.9V10.1H397.6L380.1 39.3V10.1H371.3ZM233 10.1H210.7V51.9H219.6V36.5H233.1C240.4 36.5 246.4 30.5 246.4 23.2C246.2 16 240.3 10.1 233 10.1ZM0 52H8.8V17.6H29.2V10.1H0V52ZM133.9 10.1H125V44.7H111.2V10.1H102.3V44.7H88.5V10.1H79.6V51.9H133.9V10.1ZM363.7 10.1H354.8V28.1C353.4 28.3 349.6 28.5 346.6 28.5C340.5 28.5 337.4 28 337.4 22.1V10H328.5V23.9C328.5 32.9 334.2 35.7 344.4 35.7C348.1 35.7 352 35.3 354.7 35V51.8H363.6V10.1H363.7ZM312.5 26H298.8V17.4H321V10.1H289.9V51.9H312.5C319.8 51.9 325.8 46.1 325.8 38.8C325.8 31.5 319.8 26 312.5 26ZM449.5 10.1H440.6V27H423.3V10.1H414.4V51.9H423.3V34.4H440.6V51.9H449.5V10.1ZM64.6 30.8C64.6 39.6 59.8 45.6 52.1 45.6C44.4 45.6 39.6 39.5 39.6 30.8C39.6 22 44.4 16 52.1 16C59.8 16 64.6 22.1 64.6 30.8ZM152.2 35.8L159.2 16.8L166.1 35.8H152.2ZM231.7 29.2H219.5V17.4H231.7C235 17.4 237.6 20 237.6 23.3C237.6 26.6 235 29.2 231.7 29.2ZM311.2 44.8H298.7V33.1H311.2C314.5 33.1 317.1 35.6 317.1 38.9C317.1 42.2 314.5 44.8 311.2 44.8Z"></path>
</svg>
